<svg width="360" height="344" viewBox="0 0 360 344" fill="none" xmlns="http://www.w3.org/2000/svg">
<g clip-path="url(#clip0_187_2)">
<path d="M309.414 56.4476C291.023 52.986 271.758 53.0525 253.635 57.862C235.27 62.5026 218.291 71.5572 202.926 82.4955C195.048 88.0603 187.527 94.113 180.153 100.316C169.804 108.87 161.006 119.126 152.783 129.701C152.216 130.389 151.782 131.22 151.02 131.725C151.082 130.881 152.099 130.177 152.241 129.519C141.124 129.07 129.851 130.4 119.278 133.969C111.484 136.728 103.729 140.449 98.0434 146.609C90.3286 154.274 82.7772 162.123 75.7601 170.442C73.0668 173.755 70.3129 177.074 68.2973 180.86C67.6731 182.152 66.8632 183.682 67.6199 185.09C68.6618 187.499 71.0339 190.134 73.9154 189.411C88.6794 187.112 103.535 184.316 118.351 182.066C115.526 187.496 112.338 192.765 109.589 198.246C110.426 201.712 111.939 205.004 113.1 208.342C105.113 208.831 97.5525 212.443 90.9763 216.788C79.2793 224.928 70.4896 236.62 63.947 249.29C57.9485 261.119 53.5169 273.826 50.518 286.67C50.6033 286.802 50.7247 286.952 50.9016 286.896C61.0717 286.037 71.1715 284.215 80.9878 281.424C95.2078 277.377 109.299 271.289 120.222 261.042C128.021 253.873 133.741 244.294 135.78 233.87C138.887 235.469 141.957 237.207 145.214 238.519C150.945 236.603 156.446 234.003 162.097 231.863C162.105 231.987 162.123 232.113 162.119 232.243C158.071 246.459 153.76 260.71 149.753 274.871C149.069 276.393 149.887 278.218 150.858 279.431C152.168 280.634 153.743 282.402 155.743 281.832C158.386 281.218 160.789 279.878 163.147 278.574C175.324 271.389 186.441 262.594 197.521 253.863C200.096 251.581 202.291 248.908 204.308 246.132C213.002 233.765 217.347 218.687 218.417 203.746C229.963 196.644 241.402 189.124 251.124 179.612C265.475 166.179 279.265 151.832 289.859 135.173C294.491 127.838 298.533 120.095 301.599 111.977C308.424 94.4339 310.926 75.2732 309.495 56.5742C309.474 56.5422 309.434 56.4789 309.414 56.4476L309.414 56.4476Z" fill="#85AAB2"/>
<path d="M309.413 56.4437C291.022 52.9821 271.757 53.0486 253.633 57.858C256.234 69.6181 261.572 80.7969 269.205 90.1204C269.627 90.4916 269.987 90.9599 270.48 91.2471C283.482 79.6844 296.481 68.1195 309.494 56.5702C309.474 56.5382 309.433 56.4749 309.414 56.4436L309.413 56.4437ZM190.854 161.719C190.8 161.66 190.689 161.673 190.588 161.682C174.084 169.015 159.453 179.928 145.623 191.405C136.196 199.655 126.751 208.035 118.906 217.851C115.322 222.551 111.28 227.452 110.15 233.391C110.67 233.312 111.004 232.807 111.402 232.529C137.886 208.958 164.404 185.424 190.889 161.851C190.894 161.787 190.88 161.745 190.856 161.718L190.854 161.719ZM152.242 129.513C141.124 129.064 129.852 130.394 119.279 133.963C111.485 136.722 103.73 140.443 98.0442 146.603C90.3293 154.268 82.7779 162.117 75.7609 170.436C73.0675 173.749 70.3136 177.068 68.298 180.854C67.6738 182.146 66.8639 183.676 67.6207 185.084C68.6625 187.493 71.0347 190.128 73.9161 189.405C76.8699 187.286 80.1352 185.649 83.4614 184.205C95.7754 179.144 108.96 176.546 122.116 174.871C122.823 174.644 122.118 175.346 122.155 175.667C131.82 161.047 141.332 146.323 151.02 131.719C151.083 130.875 152.099 130.171 152.242 129.513L152.242 129.513ZM137.957 135.517C138.25 135.822 138.29 136.332 137.941 136.643C136.502 138.406 134.421 139.405 132.476 140.494C128.492 142.528 124.323 144.23 120.003 145.401C116.184 146.515 112.507 148.08 108.654 149.072C108.053 149.191 106.727 149.465 106.749 148.513C108.112 145.065 111.334 142.794 114.514 141.12C119.94 138.328 125.815 136.503 131.743 135.131C133.709 134.941 135.821 134.637 137.715 135.343C137.808 135.387 137.889 135.446 137.957 135.517L137.957 135.517Z" fill="#E23525"/>
<path d="M309.492 56.572C296.479 68.1214 283.48 79.6863 270.478 91.2489C269.985 90.9618 269.625 90.4935 269.203 90.1222C269.28 90.2171 269.358 90.3147 269.435 90.413C277.741 100.538 289.088 108.096 301.596 111.975C308.422 94.4332 310.926 75.2739 309.493 56.5735L309.492 56.572ZM191.495 161.452C191.443 161.431 191.338 161.389 191.286 161.368C191.043 161.449 190.82 161.577 190.586 161.684C190.733 161.671 190.901 161.649 190.886 161.854C164.403 185.426 137.884 208.959 111.399 232.532C111 232.81 110.667 233.315 110.147 233.394C110.109 233.443 110.035 233.542 109.998 233.59C110.095 233.808 110.312 233.776 110.506 233.746C116.458 233.081 121.73 229.878 126.774 226.867C137.611 219.946 147.418 211.542 156.835 202.828C169.879 190.422 182.35 177.062 191.493 161.453L191.495 161.452ZM218.417 203.741C202.851 213.107 186.472 221.043 169.91 228.472C167.853 236.845 165.322 245.112 162.113 253.119C158.96 260.845 155.281 268.529 149.752 274.867C149.068 276.388 149.886 278.214 150.857 279.426C152.168 280.63 153.742 282.398 155.743 281.828C158.386 281.214 160.789 279.874 163.147 278.569C175.324 271.385 186.441 262.589 197.521 253.858C200.095 251.577 202.29 248.903 204.308 246.128C213.002 233.761 217.346 218.682 218.417 203.741Z" fill="#C62C24"/>
<path d="M253.634 57.858C235.269 62.4986 218.29 71.5533 202.925 82.4915C195.047 88.0564 187.526 94.109 180.152 100.312C169.803 108.866 161.005 119.122 152.782 129.697C152.215 130.384 151.781 131.216 151.019 131.721C141.33 146.325 131.819 161.049 122.153 175.669C120.819 177.758 119.508 179.867 118.35 182.062C115.526 187.492 112.337 192.761 109.588 198.242C110.425 201.708 111.938 205 113.099 208.338C114.287 210.971 115.653 213.535 117.275 215.927C117.768 216.588 118.07 217.591 118.904 217.853C126.749 208.037 136.194 199.657 145.622 191.407C159.451 179.93 174.082 169.017 190.586 161.684C190.82 161.578 191.043 161.449 191.286 161.368C201.12 152.959 210.742 144.114 220.497 135.542C215.407 129.437 213.892 121.015 215.25 113.316C217.233 102.194 227.416 93.2341 238.72 92.7693C246.346 92.2713 254.103 95.4435 259.166 101.168C262.852 97.9335 266.448 94.5935 270.2 91.4359C269.964 91.0792 269.687 90.7507 269.434 90.4111C269.357 90.3128 269.28 90.2152 269.202 90.1204C261.569 80.7969 256.231 69.6181 253.631 57.858L253.634 57.858ZM248.672 109.072C248.591 108.979 248.503 108.89 248.408 108.806C246.587 106.864 242.924 107.772 242.304 110.415C241.411 113.016 244.206 115.8 246.79 114.951C249.347 114.418 250.333 110.955 248.672 109.072ZM238.114 108.035C238.032 107.945 237.941 107.858 237.841 107.776C234.488 105.333 228.278 108.257 228.746 112.569C230.224 116.079 235.237 115.004 237.378 112.73C238.681 111.616 239.353 109.393 238.114 108.035Z" fill="#F9F9F9"/>
<path d="M269.435 90.4089C277.741 100.533 289.088 108.092 301.596 111.971C298.53 120.089 294.488 127.832 289.856 135.167C279.263 151.826 265.472 166.173 251.121 179.605C241.399 189.117 229.96 196.638 218.414 203.739C202.849 213.105 186.47 221.041 169.907 228.47C167.304 229.598 164.688 230.703 162.094 231.857C156.443 233.997 150.942 236.596 145.211 238.513C141.954 237.2 138.885 235.462 135.777 233.863C133.41 232.333 131.054 230.772 128.892 228.955C128.214 228.238 127.239 227.747 126.773 226.864C137.611 219.943 147.417 211.538 156.834 202.825C169.878 190.419 182.349 177.058 191.492 161.45C191.44 161.429 191.336 161.387 191.284 161.366C201.118 152.957 210.739 144.112 220.495 135.539C225.386 141.713 233.304 145.247 241.159 144.931C250.927 144.707 260.194 138.249 263.798 129.168C267.444 119.948 265.913 108.592 259.166 101.165C262.852 97.9313 266.449 94.5912 270.2 91.4337C269.965 91.077 269.688 90.7485 269.435 90.4089Z" fill="#E8E8E8"/>
<path d="M238.721 92.767C246.346 92.2691 254.103 95.4413 259.166 101.165C265.913 108.592 267.444 119.948 263.798 129.168C260.194 138.249 250.927 144.707 241.159 144.932C233.304 145.247 225.386 141.713 220.495 135.539C215.405 129.434 213.89 121.012 215.248 113.313C217.23 102.194 227.418 93.2325 238.721 92.767ZM248.765 100.5C242.173 97.2461 233.75 98.1373 228.037 102.795C224.339 105.761 221.604 110.087 220.97 114.815C219.66 121.271 222.16 128.364 227.113 132.705C230.829 136.102 235.928 137.934 240.958 137.703C246.7 137.505 252.316 134.652 255.756 130.027C259.024 125.824 260.413 120.222 259.513 114.984C258.72 108.785 254.399 103.185 248.765 100.5Z" fill="#3A3A3A"/>
<path d="M237.42 102.913C246.409 101.573 255.76 106.725 259.514 114.985C260.414 120.223 259.025 125.825 255.757 130.028C252.317 134.652 246.701 137.505 240.959 137.704C235.929 137.935 230.83 136.103 227.114 132.705C222.161 128.365 219.661 121.272 220.971 114.815C224.106 108.506 230.363 103.762 237.42 102.913ZM248.407 108.804C246.585 106.862 242.923 107.77 242.303 110.413C241.41 113.014 244.205 115.798 246.789 114.949C249.472 114.39 250.425 110.605 248.407 108.804ZM237.84 107.774C234.487 105.331 228.277 108.255 228.745 112.567C230.223 116.077 235.236 115.002 237.377 112.728C238.767 111.54 239.439 109.089 237.84 107.774Z" fill="#B6E2EF"/>
<path d="M137.708 135.343C138.205 135.577 138.363 136.261 137.934 136.643C136.495 138.406 134.414 139.405 132.469 140.494C128.486 142.528 124.317 144.23 119.996 145.401C116.177 146.515 112.5 148.08 108.647 149.073C108.046 149.192 106.72 149.465 106.742 148.514C108.105 145.065 111.327 142.795 114.507 141.12C119.933 138.328 125.808 136.504 131.736 135.131C133.702 134.941 135.814 134.638 137.708 135.343Z" fill="#F45349"/>
<path d="M122.411 174.85C122.377 174.811 122.289 174.81 122.112 174.867C108.956 176.541 95.7715 179.139 83.4575 184.2C80.1313 185.645 76.8659 187.281 73.9122 189.4C88.6762 187.101 103.532 184.305 118.348 182.055C119.506 179.86 120.816 177.751 122.151 175.662C122.124 175.421 122.513 174.967 122.411 174.85L122.411 174.85ZM169.907 228.465C167.303 229.594 164.688 230.699 162.094 231.852C162.102 231.976 162.12 232.102 162.115 232.232C158.068 246.448 153.757 260.699 149.75 274.86C155.278 268.522 158.958 260.839 162.11 253.112C165.319 245.106 167.851 236.838 169.907 228.465L169.907 228.465Z" fill="#9E1E1D"/>
<path d="M113.101 208.335C114.289 210.967 115.655 213.532 117.277 215.923C110.984 217.013 105.347 220.472 100.699 224.745C91.2005 233.818 85.5686 246.137 81.9139 258.565C81.8758 258.687 81.8361 258.814 81.792 258.943C71.2732 268.067 60.9372 277.415 50.5197 286.663C53.5185 273.818 57.9501 261.112 63.9485 249.283C70.4911 236.612 79.2808 224.921 90.9778 216.78C97.554 212.435 105.115 208.823 113.101 208.335Z" fill="#EB9D21"/>
<path d="M128.893 228.957C131.055 230.774 133.411 232.334 135.779 233.865C133.74 244.29 128.019 253.868 120.22 261.038C109.297 271.284 95.2061 277.372 80.9861 281.419C71.1699 284.21 61.0701 286.033 50.9 286.892C50.723 286.947 50.6017 286.797 50.5164 286.666C60.9339 277.418 71.27 268.07 81.7888 258.946C92.9551 257.476 104.101 254.297 113.69 248.247C120.808 243.869 126.704 237.132 128.893 228.957Z" fill="#D3891E"/>
<path d="M117.273 215.929C117.765 216.591 118.067 217.593 118.902 217.855C115.317 222.555 111.275 227.456 110.145 233.395C110.108 233.444 110.034 233.543 109.997 233.592C100.675 241.961 91.2983 250.274 81.909 258.571C85.5637 246.143 91.1956 233.823 100.694 224.751C105.342 220.478 110.98 217.019 117.273 215.929Z" fill="#FAEE1E"/>
<path d="M126.769 226.867C127.235 227.749 128.21 228.24 128.888 228.957C126.699 237.133 120.803 243.87 113.685 248.248C104.096 254.297 92.9501 257.477 81.7839 258.946C81.8279 258.817 81.8677 258.691 81.9057 258.568C91.295 250.272 100.671 241.958 109.993 233.59C110.09 233.807 110.307 233.775 110.501 233.745C116.454 233.08 121.725 229.877 126.769 226.867Z" fill="#DECF1E"/>
</g>
<defs>
<clipPath id="clip0_187_2">
<rect width="148" height="350" fill="white" transform="translate(261.587) rotate(48.365)"/>
</clipPath>
</defs>
</svg>
